<?xml version="1.0"?>
<svg xmlns="http://www.w3.org/2000/svg" xmlns:xlink="http://www.w3.org/1999/xlink" xmlns:svgjs="http://svgjs.com/svgjs" version="1.1" width="512" height="512" x="0" y="0" viewBox="0 0 512 512" style="enable-background:new 0 0 512 512" xml:space="preserve" class=""><g><path xmlns="http://www.w3.org/2000/svg" d="m512 58.667969c0-32.363281-26.304688-58.667969-58.667969-58.667969h-394.664062c-32.363281 0-58.667969 26.304688-58.667969 58.667969v394.664062c0 32.363281 26.304688 58.667969 58.667969 58.667969h394.664062c32.363281 0 58.667969-26.304688 58.667969-58.667969zm0 0" fill="#4e73df" data-original="#4caf50" style="" class=""/><path xmlns="http://www.w3.org/2000/svg" d="m385.75 171.585938c8.339844 8.339843 8.339844 21.820312 0 30.164062l-138.667969 138.664062c-4.160156 4.160157-9.621093 6.253907-15.082031 6.253907s-10.921875-2.09375-15.082031-6.253907l-69.332031-69.332031c-8.34375-8.339843-8.34375-21.824219 0-30.164062 8.339843-8.34375 21.820312-8.34375 30.164062 0l54.25 54.25 123.585938-123.582031c8.339843-8.34375 21.820312-8.34375 30.164062 0zm0 0" fill="#fafafa" data-original="#fafafa" style=""/><script/></g></svg>
